{"title":"The Jackal 1997 DVDrip English Klam","uid":6582036,"size":1819570426,"categoryP":"video","categoryS":"movies","magnet":"?xt=urn:btih:76f6aa8cf31eac4b00adb0e4571f0434eb9acd01&amp;dn=The+Jackal+1997+DVDrip+English+Klam&amp;tr=udp%3A%2F%2Ftracker.openbittorrent.com%3A80&amp;tr=udp%3A%2F%2Fopen.demonii.com%3A1337&amp;tr=udp%3A%2F%2Ftracker.coppersurfer.tk%3A6969&amp;tr=udp%3A%2F%2Fexodus.desync.com%3A6969","seeders":0,"leechers":1,"uploader":"Klambake","files":-1,"time":1312456063,"description":"With: Bruce Willis, Richard Gere and Sidney Poitier\n\nThe Jackal (Bruce Willis) is een mysterieuze huurmoordenaar die door de Russische maffia wordt ingeschakeld om in een wraakactie de directeur van de FBI om te brengen. De FBI krijgt hier lucht van en ziet zich genoodzaakt de hulp in te roepen van gevangen IRA-terrorist Declan Mulqueen (Richard Gere), de enige die The Jackal kan identificeren. Remake van The Day of the Jackal (1973).\n\nAn imprisoned IRA sniper is freed to help stop a brutal, seemingly &quot;faceless&quot; assassin from completing his next job. \n\n------------------ Dutch Friends ------------------\nYou can find my Friends at: http://www.Film-Test.nl \n------ They got my dutchs subs ---- and more ------\n\nGeneral:\n\nComplete name                    : The Jackal\\The Jackal.avi\nFormat                           : AVI\nFormat/Info                      : Audio Video Interleave\nFile size                        : 1.69 GiB\nDuration                         : 1h 59mn\nOverall bit rate                 : 2 032 Kbps\n\nVideo:\n\nFormat                           : MPEG-4 Visual\nFormat profile                   : Simple@L3\nFormat settings, BVOP            : No\nFormat settings, QPel            : No\nFormat settings, GMC             : No warppoints\nFormat settings, Matrix          : Default (H.263)\nCodec ID                         : XVID\nCodec ID/Hint                    : XviD\nDuration                         : 1h 59mn\nBit rate                         : 1 637 Kbps\nWidth                            : 720 pixels\nHeight                           : 304 pixels\nDisplay aspect ratio             : 2.35:1\nFrame rate                       : 25.000 fps\nColor space                      : YUV\nChroma subsampling               : 4:2:0\nBit depth                        : 8 bits\nScan type                        : Progressive\nBits/(Pixel*Frame)               : 0.299\nStream size                      : 1.36 GiB (81%)\nWriting library                  : XviD 1.1.2 (UTC 2006-11-01)\n\nAudio:\n\nFormat                           : AC-3\nFormat/Info                      : Audio Coding 3\nMode extension                   : CM (complete main)\nCodec ID                         : 2000\nDuration                         : 1h 59mn\nBit rate mode                    : Constant\nBit rate                         : 384 Kbps\nChannel(s)                       : 6 channels\nChannel positions                : Front: L C R, Side: L R, LFE\nSampling rate                    : 48.0 KHz\nBit depth                        : 16 bits\nStream size                      : 327 MiB (19%)\nAlignment                        : Aligned on interleaves\nInterleave, duration             : 32 ms (0.80 video frame)\nInterleave, preload duration     : 64 ms\n\n","torrent":{"xt":"urn:btih:76f6aa8cf31eac4b00adb0e4571f0434eb9acd01","amp;dn":"The+Jackal+1997+DVDrip+English+Klam","amp;tr":["udp%3A%2F%2Ftracker.openbittorrent.com%3A80","udp%3A%2F%2Fopen.demonii.com%3A1337","udp%3A%2F%2Ftracker.coppersurfer.tk%3A6969","udp%3A%2F%2Fexodus.desync.com%3A6969"],"infoHash":"76f6aa8cf31eac4b00adb0e4571f0434eb9acd01","infoHashBuffer":{"type":"Buffer","data":[118,246,170,140,243,30,172,75,0,173,176,228,87,31,4,52,235,154,205,1]},"announce":[],"urlList":[]}}